<svg width="48" height="48" viewBox="0 0 48 48" fill="none" xmlns="http://www.w3.org/2000/svg" xmlns:xlink="http://www.w3.org/1999/xlink">
<path d="M26.769,36C26.769,36.548 26.607,37.083 26.303,37.538C25.998,37.994 25.566,38.349 25.06,38.558C24.554,38.768 23.997,38.823 23.46,38.716C22.923,38.609 22.429,38.345 22.042,37.958C21.655,37.571 21.391,37.077 21.284,36.54C21.177,36.003 21.232,35.446 21.442,34.94C21.651,34.434 22.006,34.002 22.462,33.697C22.917,33.393 23.452,33.231 24,33.231C24.734,33.231 25.439,33.523 25.958,34.042C26.477,34.561 26.769,35.266 26.769,36ZM24,11.077C18.909,11.077 14.769,14.804 14.769,19.385L14.769,20.308C14.769,20.797 14.964,21.267 15.31,21.613C15.656,21.959 16.126,22.154 16.615,22.154C17.105,22.154 17.575,21.959 17.921,21.613C18.267,21.267 18.462,20.797 18.462,20.308L18.462,19.385C18.462,16.846 20.947,14.769 24,14.769C27.053,14.769 29.538,16.846 29.538,19.385C29.538,21.923 27.053,24 24,24C23.51,24 23.041,24.194 22.695,24.541C22.348,24.887 22.154,25.357 22.154,25.846L22.154,27.692C22.154,28.182 22.348,28.652 22.695,28.998C23.041,29.344 23.51,29.538 24,29.538C24.49,29.538 24.959,29.344 25.305,28.998C25.652,28.652 25.846,28.182 25.846,27.692L25.846,27.526C30.055,26.753 33.231,23.395 33.231,19.385C33.231,14.804 29.091,11.077 24,11.077ZM48,24C48,28.747 46.592,33.387 43.955,37.334C41.318,41.28 37.57,44.357 33.184,46.173C28.799,47.99 23.973,48.465 19.318,47.539C14.662,46.613 10.386,44.327 7.029,40.971C3.673,37.614 1.387,33.338 0.461,28.682C-0.465,24.027 0.01,19.201 1.827,14.816C3.643,10.43 6.72,6.682 10.666,4.045C14.613,1.408 19.253,0 24,0C30.363,0.007 36.464,2.537 40.963,7.037C45.463,11.536 47.993,17.637 48,24ZM44.308,24C44.308,19.984 43.117,16.057 40.885,12.718C38.654,9.378 35.482,6.775 31.771,5.238C28.061,3.701 23.977,3.299 20.038,4.083C16.099,4.866 12.48,6.8 9.64,9.64C6.8,12.48 4.866,16.099 4.083,20.038C3.299,23.977 3.701,28.061 5.238,31.771C6.775,35.482 9.378,38.654 12.718,40.885C16.057,43.117 19.984,44.308 24,44.308C29.384,44.302 34.546,42.16 38.353,38.353C42.16,34.546 44.302,29.384 44.308,24Z" fill="url(#pf_0_2267_3341)"/>
<defs>
<linearGradient id="pf_0_2267_3341" x1="39" y1="55" x2="7" y2="4" gradientUnits="userSpaceOnUse">
<stop stop-color="#4A4E54"/>
<stop offset="1" stop-color="#A3ADBA"/>
</linearGradient>
</defs>
</svg>
